# xmcd
#
# Track frame offsets:
#	150
#	22179
#	44857
#	59629
#	79187
#	92401
#	108506
#	121437
#	139832
#	154360
#	169988
#	185071
#	202341
#	218946
#	235836
#	253899
#	281809
#	295892
#	309896
#	326764
#
# Disc length: 4576 seconds
#
# Revision: 0
# Processed by: cddbd v1.5.1PL2 Copyright (c) Steve Scherf et al.
# Submitted via: audiograbber 1.83.01
#
DISCID=4811de14
DTITLE=Various Artist - MH_Country_2005 Vol. 2
DYEAR=2005
DGENRE=Country
TTITLE0=Emmylou Harris - All The Road Running
TTITLE1=Mark Knopfler - Smooching
TTITLE2=Mark Knopfler - Summer Of Love
TTITLE3=Mark Knopfler - Who's Your Baby Now
TTITLE4=Hometown News - 33,45,78
TTITLE5=Hometown News - The Sun Also Rises
TTITLE6=Hometown News - Anyway
TTITLE7=Hometown News - Ain't That Just Like Home
TTITLE8=Hometown News - Long Way Back Home
TTITLE9=Cory Morrow - Heart Of Fire
TTITLE10=Cory Morrow - I Couldn't Be There
TTITLE11=Cory Morrow - Nothing Left To Hide
TTITLE12=Cory Morrow - Beat Of Your Heart
TTITLE13=Darden Smith - Hands On The Wheel
TTITLE14=Jon Pousette-Dart - Under The Spell
TTITLE15=Jon Pousette-Dart - After The Rain
TTITLE16=The Jenkins - Getaway Car
TTITLE17=The Jenkins - My Baby's Kiss
TTITLE18=The Jenkins - For All I Know
TTITLE19=The Jenkins - Blame It On Mamma
EXTD=
EXTT0=
EXTT1=
EXTT2=
EXTT3=
EXTT4=
EXTT5=
EXTT6=
EXTT7=
EXTT8=
EXTT9=
EXTT10=
EXTT11=
EXTT12=
EXTT13=
EXTT14=
EXTT15=
EXTT16=
EXTT17=
EXTT18=
EXTT19=
PLAYORDER=
